<svg id="visual" viewBox="0 0 900 600" width="900" height="600" xmlns="http://www.w3.org/2000/svg" xmlns:xlink="http://www.w3.org/1999/xlink" version="1.1"><path d="M0 121L13.7 118C27.3 115 54.7 109 82 111C109.3 113 136.7 123 163.8 117C191 111 218 89 245.2 85C272.3 81 299.7 95 327 97C354.3 99 381.7 89 409 88C436.3 87 463.7 95 491 110C518.3 125 545.7 147 573 144C600.3 141 627.7 113 654.8 103C682 93 709 101 736.2 107C763.3 113 790.7 117 818 109C845.3 101 872.7 81 886.3 71L900 61L900 0L886.3 0C872.7 0 845.3 0 818 0C790.7 0 763.3 0 736.2 0C709 0 682 0 654.8 0C627.7 0 600.3 0 573 0C545.7 0 518.3 0 491 0C463.7 0 436.3 0 409 0C381.7 0 354.3 0 327 0C299.7 0 272.3 0 245.2 0C218 0 191 0 163.8 0C136.7 0 109.3 0 82 0C54.7 0 27.3 0 13.7 0L0 0Z" fill="#323232"></path><path d="M0 337L13.7 322C27.3 307 54.7 277 82 279C109.3 281 136.7 315 163.8 326C191 337 218 325 245.2 309C272.3 293 299.7 273 327 253C354.3 233 381.7 213 409 203C436.3 193 463.7 193 491 206C518.3 219 545.7 245 573 255C600.3 265 627.7 259 654.8 257C682 255 709 257 736.2 250C763.3 243 790.7 227 818 220C845.3 213 872.7 215 886.3 216L900 217L900 59L886.3 69C872.7 79 845.3 99 818 107C790.7 115 763.3 111 736.2 105C709 99 682 91 654.8 101C627.7 111 600.3 139 573 142C545.7 145 518.3 123 491 108C463.7 93 436.3 85 409 86C381.7 87 354.3 97 327 95C299.7 93 272.3 79 245.2 83C218 87 191 109 163.8 115C136.7 121 109.3 111 82 109C54.7 107 27.3 113 13.7 116L0 119Z" fill="#212121"></path><path d="M0 409L13.7 397C27.3 385 54.7 361 82 360C109.3 359 136.7 381 163.8 389C191 397 218 391 245.2 383C272.3 375 299.7 365 327 343C354.3 321 381.7 287 409 275C436.3 263 463.7 273 491 284C518.3 295 545.7 307 573 309C600.3 311 627.7 303 654.8 300C682 297 709 299 736.2 301C763.3 303 790.7 305 818 302C845.3 299 872.7 291 886.3 287L900 283L900 215L886.3 214C872.7 213 845.3 211 818 218C790.7 225 763.3 241 736.2 248C709 255 682 253 654.8 255C627.7 257 600.3 263 573 253C545.7 243 518.3 217 491 204C463.7 191 436.3 191 409 201C381.7 211 354.3 231 327 251C299.7 271 272.3 291 245.2 307C218 323 191 335 163.8 324C136.7 313 109.3 279 82 277C54.7 275 27.3 305 13.7 320L0 335Z" fill="#0f0f0f"></path><path d="M0 535L13.7 537C27.3 539 54.7 543 82 536C109.3 529 136.7 511 163.8 510C191 509 218 525 245.2 528C272.3 531 299.7 521 327 513C354.3 505 381.7 499 409 495C436.3 491 463.7 489 491 495C518.3 501 545.7 515 573 518C600.3 521 627.7 513 654.8 514C682 515 709 525 736.2 533C763.3 541 790.7 547 818 551C845.3 555 872.7 557 886.3 558L900 559L900 281L886.3 285C872.7 289 845.3 297 818 300C790.7 303 763.3 301 736.2 299C709 297 682 295 654.8 298C627.7 301 600.3 309 573 307C545.7 305 518.3 293 491 282C463.7 271 436.3 261 409 273C381.7 285 354.3 319 327 341C299.7 363 272.3 373 245.2 381C218 389 191 395 163.8 387C136.7 379 109.3 357 82 358C54.7 359 27.3 383 13.7 395L0 407Z" fill="#0e0e0e"></path><path d="M0 601L13.7 601C27.3 601 54.7 601 82 601C109.3 601 136.7 601 163.8 601C191 601 218 601 245.2 601C272.3 601 299.7 601 327 601C354.3 601 381.7 601 409 601C436.3 601 463.7 601 491 601C518.3 601 545.7 601 573 601C600.3 601 627.7 601 654.8 601C682 601 709 601 736.2 601C763.3 601 790.7 601 818 601C845.3 601 872.7 601 886.3 601L900 601L900 557L886.3 556C872.7 555 845.3 553 818 549C790.7 545 763.3 539 736.2 531C709 523 682 513 654.8 512C627.7 511 600.3 519 573 516C545.7 513 518.3 499 491 493C463.7 487 436.3 489 409 493C381.7 497 354.3 503 327 511C299.7 519 272.3 529 245.2 526C218 523 191 507 163.8 508C136.7 509 109.3 527 82 534C54.7 541 27.3 537 13.7 535L0 533Z" fill="#0c0c0c"></path></svg>